<svg width="40" height="40" viewBox="0 0 40 40" fill="none" xmlns="http://www.w3.org/2000/svg">
<g clip-path="url(#clip0_363_2066)">
<path d="M19.344 0.0169607C19.3891 0.0167406 19.4343 0.0165184 19.4794 0.0162942C19.623 0.0156857 19.7666 0.015525 19.9102 0.0155004C19.947 0.0154866 19.947 0.0154866 19.9844 0.0154726C20.7267 0.0154277 21.4623 0.024212 22.1996 0.116746C22.2511 0.123003 22.3027 0.129254 22.3542 0.135502C24.044 0.343348 25.9373 0.622713 28.5585 1.94694C29.9429 2.5686 30.7727 3.09492 31.5226 3.66033C31.9188 3.9591 32.209 4.15877 32.755 4.59491C32.8415 4.66856 32.9182 4.75969 33.0069 4.83053C33.2113 4.99662 33.4011 5.17777 33.5925 5.35835C33.664 5.42538 33.7363 5.49147 33.8087 5.5575C34.0799 5.80505 34.3473 6.05773 34.5855 6.33754C34.657 6.41881 34.7311 6.49734 34.8054 6.576C34.9743 6.75474 35.1385 6.93462 35.2921 7.12682C35.3491 7.19783 35.4068 7.26789 35.4654 7.33759C36.1935 8.20515 36.8423 9.15933 37.3946 10.1479C37.4105 10.1761 37.4264 10.2042 37.4428 10.2332C38.8564 12.7457 39.6979 15.5447 39.9531 18.7772C39.9558 18.8219 39.9558 18.8219 39.9585 18.8676C40.1044 21.456 39.7412 24.0543 38.8923 26.503C38.8631 26.4955 38.834 26.4879 38.8039 26.4802C38.6672 26.4451 38.5302 26.4117 38.3931 26.3784C38.3709 26.3729 38.3487 26.3675 38.3258 26.3618C37.266 26.1035 36.072 26.0632 34.9921 26.2227C34.9644 26.2265 34.9367 26.2304 34.9082 26.2343C33.6753 26.4098 32.6135 26.9267 31.5515 27.5512C31.3293 27.6816 31.1049 27.8075 30.8786 27.9304C30.8103 27.9677 30.7424 28.0056 30.6744 28.0435C29.3589 28.7672 27.8269 29.1508 26.3261 29.1573C26.2924 29.1576 26.2586 29.1578 26.2239 29.158C26.1155 29.1585 26.0072 29.1587 25.8989 29.1588C25.8619 29.1588 25.8248 29.1588 25.7867 29.1589C25.2296 29.1584 24.6852 29.1446 24.1341 29.0576C24.0815 29.0495 24.0815 29.0495 24.0279 29.0414C23.5206 28.9619 23.0309 28.8425 22.5428 28.6837C22.5149 28.6748 22.487 28.6659 22.4583 28.6566C21.6682 28.3998 20.9285 28.0036 20.2147 27.5839C18.3254 26.4736 16.3598 25.8963 14.1497 26.2227C14.122 26.2265 14.0943 26.2304 14.0658 26.2343C12.8206 26.4115 11.7355 26.9382 10.667 27.575C9.92066 28.0182 9.16742 28.3996 8.34626 28.6837C8.32044 28.6927 8.29462 28.7017 8.26801 28.711C6.38966 29.352 4.24036 29.2936 2.32442 28.8706C2.29147 28.8642 2.25851 28.8577 2.22456 28.851C2.00221 28.8017 2.00221 28.8017 1.90625 28.6897C1.88254 28.6337 1.88254 28.6337 1.85835 28.5766C1.8442 28.5446 1.8442 28.5446 1.82975 28.5119C1.80825 28.4628 1.78735 28.4134 1.76693 28.3638C1.7275 28.2689 1.68585 28.1752 1.64396 28.0814C0.788445 26.1494 0.168941 24.1008 0.0155289 20.7477C-0.0242612 19.8779 0.0314467 18.9059 0.0467281 17.8426C0.0493022 17.8189 0.0518763 17.7951 0.0545284 17.7707C0.210207 16.352 0.522073 14.9566 0.982765 13.6058C1.00073 13.5528 1.00073 13.5528 1.01906 13.4987C1.43828 12.2695 1.97356 11.0788 2.63643 9.96098C2.6674 9.90797 2.69836 9.85496 2.7293 9.80193C3.27324 8.87709 3.90411 7.99405 4.60238 7.17889C4.69457 7.07125 4.78434 6.96201 4.87317 6.85156C4.97283 6.72917 5.0767 6.6161 5.19128 6.50754C5.24626 6.45194 5.29628 6.39552 5.34692 6.33608C5.50629 6.15286 5.6797 5.98323 5.85177 5.81201C5.91048 5.75356 5.96903 5.69494 6.02756 5.6363C6.21278 5.45126 6.39877 5.27018 6.59899 5.10117C6.64915 5.05586 6.69922 5.01045 6.74915 4.96488C6.88218 4.84516 7.01851 4.73066 7.15781 4.6183C7.22799 4.5616 7.29773 4.50453 7.3672 4.44696C7.65172 4.21211 7.94452 3.9923 8.24588 3.77946C8.3123 3.73241 8.37838 3.6849 8.44437 3.63724C9.30847 3.01611 10.235 2.49356 11.1856 2.01706C11.2269 1.99619 11.2269 1.99619 11.2691 1.97491C12.843 1.18583 14.5452 0.664385 16.2714 0.334815C16.329 0.323807 16.329 0.323807 16.3878 0.312576C16.9625 0.205207 17.5395 0.136938 18.1209 0.079266C18.1414 0.0771964 18.162 0.0751269 18.1832 0.0729946C18.5699 0.035732 18.9555 0.0181344 19.344 0.0169607ZM11.9032 4.2289C11.8725 4.24428 11.8417 4.25967 11.8101 4.27552C10.6936 4.83822 9.64937 5.54844 8.68947 6.34728C8.67138 6.36225 8.65329 6.37722 8.63466 6.39265C8.40269 6.5849 8.17785 6.78367 7.95708 6.9886C7.90832 7.03367 7.85926 7.0784 7.81011 7.12305C7.50581 7.40013 7.20268 7.68205 6.93587 7.99593C6.87762 8.06318 6.81744 8.12843 6.75686 8.19358C6.60927 8.35239 6.46761 8.5142 6.33159 8.68312C6.27569 8.75247 6.21935 8.82126 6.16242 8.88974C5.46717 9.72899 4.86725 10.6526 4.3525 11.6121C4.33791 11.6391 4.32332 11.6662 4.30829 11.694C3.01285 14.1035 2.28601 16.8193 2.23082 19.556C2.23013 19.588 2.22945 19.6201 2.22874 19.6531C2.18507 22.0749 2.69883 24.7508 3.71287 26.9626C5.77899 27.4437 7.9261 26.7208 9.68167 25.6715C11.3753 24.6661 13.1333 24.0461 15.1169 24.0108C15.1416 24.0102 15.1662 24.0096 15.1917 24.0089C16.8059 23.9696 18.3981 24.2475 19.8595 24.9454C19.8799 24.955 19.9003 24.9646 19.9213 24.9745C20.4523 25.2256 20.9668 25.5199 21.4703 25.8216C22.2438 26.3363 22.2438 26.3363 23.1044 26.5965C23.1045 26.5767 23.1046 26.5569 23.1047 26.5366C23.1065 26.0542 23.1089 25.5718 23.1118 25.0895C23.1132 24.8562 23.1144 24.6229 23.1153 24.3896C23.116 24.1862 23.117 23.9828 23.1184 23.7794C23.1192 23.6717 23.1198 23.5641 23.12 23.4565C23.1202 23.3361 23.1212 23.2157 23.1222 23.0952C23.1221 23.06 23.1221 23.0247 23.122 22.9883C23.1264 22.6204 23.2217 22.2943 23.4731 22.0168C23.7779 21.7329 24.0937 21.6588 24.4979 21.6657C24.8098 21.6793 25.1025 21.8264 25.3189 22.0493C25.5401 22.3152 25.6345 22.6054 25.6367 22.9492C25.637 22.9854 25.6373 23.0216 25.6376 23.0588C25.6378 23.0981 25.638 23.1373 25.6382 23.1777C25.6385 23.2198 25.6388 23.2619 25.6391 23.3039C25.6399 23.4178 25.6406 23.5316 25.6412 23.6455C25.6419 23.7646 25.6427 23.8837 25.6436 24.0028C25.6451 24.2282 25.6465 24.4536 25.6479 24.679C25.6494 24.9357 25.6511 25.1924 25.6529 25.4491C25.6564 25.9769 25.6598 26.5048 25.663 27.0326C25.7574 27.0329 25.8518 27.0331 25.9463 27.0332C25.9728 27.0333 25.9993 27.0334 26.0267 27.0334C26.2358 27.0337 26.4432 27.0262 26.6516 27.0093C26.6857 27.0065 26.7198 27.0037 26.7549 27.0009C27.7613 26.9126 29.3628 26.6407 30.1247 25.88C30.1287 25.8358 30.1306 25.7915 30.1316 25.7471C30.1323 25.7185 30.1331 25.6898 30.1338 25.6602C30.1347 25.6126 30.1347 25.6126 30.1357 25.5641C30.1365 25.5308 30.1372 25.4976 30.138 25.4634C30.1446 25.1551 30.1485 24.8468 30.1515 24.5385C30.1536 24.3314 30.1566 24.1245 30.1617 23.9175C30.1667 23.7173 30.1693 23.5171 30.1703 23.3169C30.1711 23.2408 30.1727 23.1648 30.1752 23.0888C30.1939 22.5899 30.1939 22.5899 29.9616 22.1653C29.8821 22.0851 29.7997 22.0104 29.7124 21.9387C29.637 21.8761 29.5691 21.8069 29.5007 21.7367C29.479 21.7153 29.4573 21.694 29.4349 21.6719C29.3787 21.6149 29.3264 21.5562 29.2745 21.4953C29.1736 21.3776 29.0649 21.2692 28.9547 21.1604C28.8288 21.0361 28.7084 20.9107 28.5939 20.7758C28.4928 20.6634 28.3839 20.5587 28.2764 20.4526C28.1683 20.3454 28.0663 20.2356 27.9678 20.1195C27.8894 20.032 27.8059 19.95 27.7222 19.8675C27.6204 19.7671 27.5204 19.6671 27.4278 19.5579C27.3291 19.442 27.2221 19.3358 27.1138 19.2289C26.9873 19.104 26.8661 18.9778 26.751 18.8423C26.6725 18.7548 26.5891 18.6728 26.5054 18.5903C26.4035 18.4898 26.3036 18.3898 26.2109 18.2807C26.0959 18.1455 25.9691 18.0228 25.8428 17.8982C25.7336 17.7899 25.6302 17.679 25.5307 17.5616C25.4348 17.454 25.3306 17.3545 25.2274 17.2539C25.1637 17.1884 25.1637 17.1884 25.1325 17.1261C25.5836 17.1177 26.0346 17.1125 26.4858 17.1108C26.6953 17.11 26.9047 17.1081 27.1143 17.104C27.3168 17.1 27.5192 17.0987 27.7218 17.0991C27.7987 17.0989 27.8756 17.0977 27.9525 17.0955C28.5854 17.0785 28.5854 17.0785 28.8145 17.2735C28.9246 17.3827 29.0198 17.5003 29.1111 17.6254C29.1727 17.707 29.241 17.7745 29.3154 17.8446C29.394 17.9218 29.4682 18.0002 29.5397 18.084C29.6406 18.2017 29.7493 18.3101 29.8595 18.4189C29.9854 18.5432 30.1058 18.6686 30.2203 18.8035C30.3045 18.897 30.394 18.9847 30.4835 19.0731C30.6094 19.1974 30.7298 19.3228 30.8443 19.4577C30.9285 19.5512 31.018 19.6389 31.1076 19.7273C31.2334 19.8516 31.3539 19.977 31.4683 20.1119C31.5525 20.2054 31.6421 20.2932 31.7316 20.3815C31.8573 20.5056 31.9777 20.6308 32.0919 20.7656C32.1954 20.8805 32.3065 20.9879 32.4171 21.096C32.434 21.1126 32.4509 21.1292 32.4682 21.1462C32.4833 21.161 32.4985 21.1757 32.514 21.1909C32.5287 21.2065 32.5433 21.2221 32.5584 21.2382C32.5745 21.2534 32.5906 21.2686 32.6072 21.2842C32.6779 21.4081 32.6657 21.5313 32.6655 21.6715C32.6658 21.7029 32.6662 21.7342 32.6665 21.7664C32.6674 21.8699 32.6677 21.9734 32.668 22.0769C32.6685 22.1487 32.6691 22.2205 32.6697 22.2922C32.6712 22.4811 32.6721 22.67 32.6729 22.8589C32.6739 23.0516 32.6753 23.2443 32.6767 23.4371C32.6794 23.8152 32.6815 24.1934 32.6832 24.5716C32.7046 24.5652 32.7261 24.5587 32.7481 24.5521C32.7902 24.5395 32.7902 24.5395 32.8332 24.5266C32.8611 24.5183 32.8889 24.5099 32.9176 24.5013C33.6986 24.268 34.4898 24.099 35.3041 24.042C35.3385 24.0393 35.3385 24.0393 35.3735 24.0367C35.9933 23.9908 36.6176 24.008 37.2386 24.0108C37.3728 23.3489 37.5022 22.6882 37.5818 22.0171C37.5865 21.9797 37.5912 21.9423 37.596 21.9038C37.7531 20.5994 37.7436 19.2397 37.5818 17.9361C37.578 17.904 37.578 17.904 37.574 17.8714C37.3223 15.7875 36.6812 13.7965 35.741 11.9236C35.7271 11.8958 35.7132 11.8679 35.6988 11.8392C35.3762 11.197 34.9962 10.5825 34.5865 9.99214C34.5734 9.97319 34.5603 9.95425 34.5467 9.93473C34.2467 9.50379 33.9264 9.08531 33.5881 8.68372C33.5741 8.66716 33.5602 8.6506 33.5458 8.63354C33.4996 8.57875 33.4532 8.52412 33.4067 8.46955C33.3863 8.44541 33.3863 8.44541 33.3654 8.42079C33.0677 8.07376 32.7487 7.74712 32.4248 7.42473C32.3629 7.36315 32.3013 7.3014 32.2396 7.23963C32.0496 7.04982 31.8598 6.86239 31.6536 6.68996C31.6187 6.65967 31.5838 6.62933 31.549 6.59893C31.3163 6.39769 31.0795 6.20325 30.8353 6.01602C30.7814 5.97459 30.7279 5.93272 30.6744 5.89082C30.3954 5.67494 30.1041 5.47792 29.8108 5.28224C29.7912 5.26917 29.7717 5.2561 29.7515 5.24263C29.2866 4.93218 28.8067 4.65069 28.3151 4.38466C28.2885 4.37024 28.262 4.35583 28.2347 4.34097C26.0691 3.17004 23.6801 2.52874 19.9941 2.29159C19.9619 2.29161 19.9296 2.29163 19.8964 2.29165C17.1068 2.29605 14.3936 2.98102 11.9032 4.2289Z" fill="white"/>
<path d="M31.1159 7.88361C31.1523 7.88363 31.1887 7.88366 31.2263 7.88368C31.45 7.88525 31.6714 7.89383 31.894 7.91671C31.9182 7.91915 31.9424 7.92159 31.9674 7.92411C32.079 7.93732 32.1421 7.95073 32.2372 8.01406C30.3015 9.94677 28.3658 11.8795 26.3714 13.8708C26.5361 13.7885 26.7009 13.7063 26.8706 13.6215C26.9971 13.5662 27.1226 13.5125 27.2509 13.4619C27.2841 13.4488 27.3173 13.4356 27.3515 13.4221C29.0709 12.7565 31.0123 12.8048 32.7052 13.5281C32.8753 13.6045 33.0403 13.689 33.2044 13.7773C33.2353 13.7932 33.2661 13.8092 33.2979 13.8256C34.0732 14.233 34.7829 14.8391 35.3261 15.5218C35.3503 15.5515 35.3744 15.5812 35.3993 15.6118C35.5757 15.8292 35.5757 15.8292 35.5757 15.8645C35.5528 15.8637 35.5299 15.863 35.5063 15.8621C34.1811 15.8645 32.7742 15.8814 31.4042 15.8621C31.2383 15.8598 31.1332 15.8646 30.9673 15.8621C30.8893 15.8645 30.7985 15.865 30.7645 15.8645C30.3009 15.8574 29.9221 15.8621 29.4541 15.8621C28.6584 15.8567 27.8644 15.8613 27.0672 15.8621C26.88 15.8621 26.5405 15.8665 26.1155 15.8645C25.25 15.8605 24.5399 15.8411 24.3839 15.8723C24.3059 15.9502 23.7739 16.478 23.1705 17.0772C22.7986 17.4633 22.466 17.7923 22.2778 17.9907C22.1686 18.1308 22.0063 18.2599 21.8784 18.3879C21.8476 18.4196 21.8476 18.4196 21.8162 18.452C21.7464 18.5233 21.6758 18.5936 21.605 18.6639C21.5786 18.6903 21.5521 18.7166 21.5248 18.7438C21.4529 18.8154 21.381 18.887 21.309 18.9585C21.2332 19.0338 21.1576 19.1093 21.0819 19.1847C20.8736 19.3923 20.6651 19.5998 20.4566 19.8073C20.2654 19.9976 20.0741 20.188 19.883 20.3785C19.8079 20.4533 19.7328 20.5281 19.6576 20.6029C19.5737 20.6863 19.4899 20.7698 19.4061 20.8533C19.3815 20.8777 19.357 20.902 19.3317 20.9271C19.2054 21.0532 19.0851 21.1822 18.9685 21.3173C18.8725 21.4258 18.7696 21.5275 18.6671 21.6299C18.6434 21.6536 18.6197 21.6774 18.5953 21.7018C18.5179 21.7794 18.4403 21.8569 18.3628 21.9344C18.3087 21.9885 18.2546 22.0427 18.2005 22.0968C18.0875 22.2098 17.9745 22.3227 17.8614 22.4355C17.7162 22.5805 17.5713 22.7257 17.4263 22.8709C17.3149 22.9825 17.2033 23.094 17.0917 23.2054C17.0382 23.2589 16.9847 23.3124 16.9312 23.3661C16.8568 23.4406 16.7822 23.515 16.7076 23.5893C16.6854 23.6117 16.6632 23.634 16.6404 23.657C16.61 23.6871 16.61 23.6871 16.579 23.7179C16.5614 23.7355 16.5438 23.7531 16.5257 23.7712C16.4806 23.8085 16.4806 23.8085 16.4182 23.8085C16.3604 23.4312 16.3444 23.0623 16.346 22.6811C16.3461 22.6388 16.3461 22.6388 16.3462 22.5957C16.3478 22.1829 16.3609 21.7831 16.4494 21.3785C16.4556 21.3486 16.4618 21.3186 16.4682 21.2878C16.6063 20.6292 16.8143 20.0078 17.1358 19.4159C17.1518 19.3857 17.1518 19.3857 17.1681 19.3549C17.6711 18.4045 18.4078 17.5723 19.2887 16.9549C19.3077 16.9412 19.3268 16.9275 19.3464 16.9134C20.0156 16.4338 20.7744 16.1113 21.5664 15.8957C17.3809 15.8803 17.3809 15.8803 13.1108 15.8645C13.3209 15.5499 13.3209 15.5499 13.4365 15.4264C13.5226 15.3335 13.6075 15.2402 13.69 15.1441C13.9033 14.901 14.1366 14.6944 14.3901 14.4938C14.4199 14.4694 14.4496 14.4451 14.4803 14.4199C15.8969 13.2866 17.7707 12.8164 19.5614 12.9914C20.4878 13.0978 21.3201 13.3906 22.1493 13.8052C22.2238 13.8424 22.2238 13.8424 22.3152 13.8708C21.8925 13.4479 21.4696 13.0252 21.0467 12.6026C20.8503 12.4063 20.6539 12.2101 20.4576 12.0137C20.2865 11.8425 20.1152 11.6714 19.9439 11.5003C19.8533 11.4097 19.7627 11.3192 19.6722 11.2286C19.5868 11.1431 19.5014 11.0578 19.4159 10.9724C19.3847 10.9413 19.3535 10.9101 19.3223 10.8788C19.1686 10.7248 19.0136 10.575 18.8483 10.4333C18.7443 10.342 18.647 10.244 18.5492 10.1463C18.5153 10.1126 18.5153 10.1126 18.4808 10.0783C18.4071 10.0051 18.3336 9.93168 18.26 9.85827C18.2086 9.80705 18.1572 9.75582 18.1058 9.7046C17.9985 9.59769 17.8913 9.49072 17.7842 9.3837C17.6465 9.24628 17.5087 9.10906 17.3708 8.9719C17.2648 8.86642 17.1589 8.7608 17.0531 8.65514C17.0023 8.60445 16.9515 8.55381 16.9005 8.50322C16.8297 8.43282 16.7591 8.36224 16.6886 8.2916C16.6568 8.26011 16.6568 8.26011 16.6243 8.22799C16.6053 8.20882 16.5862 8.18966 16.5665 8.16991C16.5415 8.14492 16.5415 8.14492 16.5159 8.11942C16.4806 8.07636 16.4806 8.07636 16.4806 8.01406C18.2587 7.68457 20.1039 8.1529 21.5897 9.15113C22.1927 9.56509 22.7489 10.0821 23.1815 10.6719C23.2202 10.7246 23.2597 10.7766 23.2993 10.8286C23.5102 11.11 23.6822 11.4095 23.8441 11.7212C23.8553 11.7427 23.8664 11.7642 23.878 11.7863C24.0726 12.1656 24.2098 12.5632 24.3433 12.9673C24.4054 12.815 24.4665 12.6625 24.5217 12.5075C24.7382 11.905 25.0261 11.3357 25.4041 10.8178C25.4167 10.8004 25.4294 10.783 25.4424 10.7651C25.6309 10.5074 25.838 10.2691 26.0594 10.039C26.0761 10.0214 26.0928 10.0039 26.1101 9.98577C26.3664 9.7181 26.6337 9.47887 26.933 9.26017C26.9657 9.23623 26.9983 9.2123 27.032 9.18764C28.2291 8.33729 29.6457 7.88254 31.1159 7.88361Z" fill="white"/>
<path d="M14.9245 32.0576C14.9628 32.0574 15.0012 32.0572 15.0407 32.057C15.1216 32.0567 15.2024 32.0565 15.2833 32.0564C15.4041 32.0561 15.5248 32.0552 15.6456 32.0542C17.6235 32.0458 19.3947 32.6328 21.082 33.6288C23.2541 34.9096 25.5624 35.4252 28.0611 34.808C28.9838 34.5667 29.8113 34.1121 30.6271 33.6307C30.8496 33.4995 31.0751 33.374 31.3019 33.2504C31.3594 33.2188 31.4165 33.1866 31.4736 33.1541C32.5545 32.5532 33.7591 32.2311 34.9829 32.0951C35.0358 32.0889 35.0358 32.0889 35.0898 32.0826C35.3551 32.0561 35.6214 32.0611 35.8877 32.0639C35.8349 32.1854 35.7552 32.2843 35.6732 32.3871C35.6581 32.4061 35.6431 32.4252 35.6275 32.4448C35.3942 32.737 35.1485 33.0189 34.8965 33.2952C34.8385 33.3594 34.7816 33.4242 34.7249 33.4895C34.6072 33.624 34.4856 33.7546 34.3628 33.8844C34.3299 33.9192 34.3299 33.9192 34.2963 33.9546C34.0896 34.1727 33.8829 34.3876 33.6543 34.583C33.5718 34.6557 33.4919 34.7307 33.4119 34.8061C33.2306 34.9768 33.0479 35.142 32.853 35.2973C32.7736 35.3613 32.6959 35.4268 32.6185 35.4931C32.4314 35.6532 32.2403 35.8052 32.0411 35.9501C31.9824 35.9929 31.924 36.036 31.8656 36.0791C30.1296 37.3518 28.2307 38.34 26.1841 39.0109C26.1496 39.0224 26.1152 39.0338 26.0796 39.0456C24.7088 39.4969 23.2844 39.7842 21.8472 39.9144C21.8182 39.9171 21.7892 39.9197 21.7594 39.9225C21.189 39.974 20.6209 39.9881 20.0486 39.9866C19.9798 39.9864 19.9109 39.9863 19.842 39.9862C19.134 39.985 18.4322 39.9667 17.7286 39.8832C17.6829 39.878 17.6372 39.8727 17.5915 39.8675C14.8669 39.5505 12.1971 38.6595 6.68335 34.9611C6.68335 34.9508 6.68335 34.9405 6.68335 34.9299C6.70338 34.9256 6.72342 34.9212 6.74406 34.9167C7.82099 34.6792 8.75388 34.2336 9.70132 33.681C9.95265 33.5346 10.2054 33.3907 10.4587 33.2477C10.4892 33.2304 10.4892 33.2304 10.5203 33.2127C11.849 32.4628 13.4002 32.0632 14.9245 32.0576ZM11.1763 35.3038C11.166 35.3243 11.1557 35.3449 11.1451 35.3661C13.5609 36.6949 16.1658 37.524 19.9185 37.7103C19.9502 37.7103 19.982 37.7104 20.0147 37.7104C21.461 37.7089 22.9109 37.5375 24.3121 37.1729C24.3121 37.1524 24.3121 37.1318 24.3121 37.1106C24.2889 37.1071 24.2657 37.1035 24.2419 37.0998C23.1132 36.9227 22.0889 36.5979 21.0671 36.0826C21.0307 36.0643 21.0307 36.0643 20.9935 36.0456C20.6803 35.8874 20.3783 35.7109 20.0757 35.5335C19.7548 35.3458 19.4309 35.1647 19.1014 34.9923C19.0649 34.9731 19.0649 34.9731 19.0276 34.9535C18.2225 34.5362 17.3212 34.2907 16.4181 34.2134C16.3875 34.2108 16.3568 34.2081 16.3252 34.2053C16.0341 34.182 15.7447 34.176 15.4529 34.1764C15.4171 34.1765 15.4171 34.1765 15.3806 34.1765C13.9223 34.1796 12.4074 34.4793 11.1763 35.3038Z" fill="white"/>
<path d="M21.1955 29.6741C22.3735 30.3722 23.5583 30.8851 24.936 31.0047C24.9923 31.0099 24.9923 31.0099 25.0497 31.0152C27.054 31.1702 28.8029 30.7012 30.5158 29.6742C32.75 28.3448 35.5334 27.5499 38.1449 28.1556C38.1619 28.1603 38.179 28.165 38.1965 28.1698C38.1768 28.2967 38.1356 28.3989 38.0799 28.5143C38.0533 28.5695 38.0533 28.5695 38.0263 28.6258C38.007 28.6653 37.9877 28.7047 37.9684 28.7442C37.9586 28.7642 37.9489 28.7842 37.9389 28.8048C37.8067 29.0764 37.6702 29.3453 37.5257 29.6106C37.5111 29.6374 37.4966 29.6642 37.4815 29.6919C37.4545 29.7406 37.427 29.7891 37.3988 29.8372C37.3699 29.8871 37.3422 29.9377 37.3159 29.989C37.2084 30.1801 37.2084 30.1801 37.0985 30.2188C37.0153 30.2262 36.9365 30.2247 36.853 30.2199C36.8225 30.2194 36.7919 30.2188 36.7604 30.2183C36.6624 30.2163 36.5647 30.2124 36.4668 30.2084C36.3395 30.2045 36.2121 30.2014 36.0847 30.1985C36.0531 30.1977 36.0214 30.1969 35.9888 30.1961C34.346 30.1656 32.9277 30.78 31.5371 31.5887C29.9163 32.5303 28.2371 33.1838 26.3343 33.1917C26.2992 33.1919 26.2641 33.1922 26.2279 33.1924C26.1151 33.1929 26.0023 33.1931 25.8896 33.1932C25.8511 33.1932 25.8126 33.1932 25.7729 33.1932C25.2073 33.1928 24.6529 33.1826 24.0936 33.0919C24.0429 33.0839 24.0429 33.0839 23.9912 33.0757C22.6012 32.8487 21.3673 32.3029 20.1625 31.5896C18.989 30.8989 17.7923 30.3436 16.418 30.2259C16.3876 30.2232 16.3571 30.2205 16.3257 30.2178C16.0292 30.194 15.7344 30.1885 15.4372 30.1889C15.4126 30.1889 15.388 30.1889 15.3627 30.189C14.2295 30.1913 13.114 30.3639 12.0811 30.8489C12.0501 30.8634 12.0501 30.8634 12.0185 30.8782C11.5411 31.1042 11.0778 31.3633 10.6232 31.6316C9.01393 32.5814 7.32576 33.1597 5.44596 33.2049C5.4035 33.2062 5.36106 33.2081 5.31866 33.2106C4.96604 33.231 4.96604 33.231 4.81704 33.12C4.74558 33.0412 4.68461 32.9611 4.62398 32.8739C4.58081 32.8216 4.5373 32.7697 4.49332 32.7181C4.08073 32.2087 3.68449 31.6875 3.31938 31.143C3.29939 31.1132 3.29939 31.1132 3.279 31.0828C3.18872 30.9464 3.18872 30.9464 3.18872 30.9113C3.37763 30.9251 3.56578 30.9421 3.75375 30.9653C5.8189 31.2202 7.70531 30.8367 9.48735 29.7781C9.77901 29.6049 10.0756 29.4404 10.3726 29.2766C10.4255 29.2473 10.4785 29.2179 10.5313 29.1883C13.3397 27.6136 17.117 27.6163 21.1955 29.6741Z" fill="white"/>
</g>
<defs>
<clipPath id="clip0_363_2066">
<rect width="40" height="40" fill="white"/>
</clipPath>
</defs>
</svg>
