<svg width="129" height="42" viewBox="0 0 129 42" fill="none" xmlns="http://www.w3.org/2000/svg">
<path fill-rule="evenodd" clip-rule="evenodd" d="M16.6237 33.6569C18.7222 33.648 20.6014 34.2654 22.3915 35.313C24.696 36.6601 27.1451 37.2024 29.7961 36.5533C30.7751 36.2995 31.6531 35.8213 32.5186 35.315C32.7547 35.177 32.9938 35.0449 33.2345 34.915C33.2955 34.8818 33.3561 34.8479 33.4167 34.8137C34.5635 34.1817 35.8415 33.843 37.1399 33.6999C37.196 33.6934 37.196 33.6934 37.2533 33.6868C37.5348 33.6589 37.8173 33.6641 38.0999 33.6671C38.0438 33.7948 37.9592 33.8989 37.8723 34.0071C37.8563 34.0271 37.8403 34.0471 37.8238 34.0677C37.5763 34.3751 37.3156 34.6716 37.0482 34.9621C36.9868 35.0296 36.9263 35.0978 36.8662 35.1665C36.7413 35.308 36.6123 35.4453 36.4819 35.5818C36.4471 35.6184 36.447 35.6184 36.4115 35.6557C36.1921 35.8851 35.9728 36.1111 35.7303 36.3166C35.6429 36.3931 35.558 36.4719 35.4731 36.5512C35.2808 36.7307 35.0869 36.9045 34.8802 37.0679C34.7959 37.1351 34.7135 37.2041 34.6313 37.2738C34.4329 37.4422 34.2301 37.6021 34.0187 37.7545C33.9565 37.7994 33.8945 37.8448 33.8325 37.8901C31.9908 39.2288 29.9761 40.2681 27.8047 40.9737C27.7681 40.9857 27.7315 40.9978 27.6938 41.0102C26.2395 41.4849 24.7282 41.787 23.2033 41.924C23.1726 41.9268 23.1419 41.9296 23.1102 41.9325C22.505 41.9867 21.9023 42.0015 21.2952 41.9999C21.2221 41.9997 21.149 41.9996 21.0759 41.9995C20.3248 41.9982 19.5802 41.979 18.8337 41.8912C18.7852 41.8857 18.7367 41.8802 18.6882 41.8747C15.7975 41.5412 12.9649 40.6041 7.11505 36.7142V36.6815C7.1363 36.6769 7.15754 36.6723 7.17944 36.6676C8.32202 36.4177 9.31181 35.9491 10.317 35.3679C10.5837 35.214 10.8518 35.0626 11.1206 34.9122C11.1529 34.894 11.1529 34.894 11.1859 34.8754C12.5956 34.0867 14.2414 33.6664 15.8586 33.6604C15.8993 33.6602 15.94 33.6601 15.9819 33.6599C16.0677 33.6596 16.1535 33.6593 16.2394 33.6592C16.3675 33.6589 16.4956 33.6579 16.6237 33.6569ZM16.3425 35.8891C14.7954 35.8923 13.1881 36.2075 11.882 37.0747C11.871 37.0963 11.8601 37.1179 11.8488 37.1402C14.4119 38.5378 17.1756 39.4098 21.1571 39.6058C21.1908 39.6058 21.2244 39.6058 21.2591 39.6059C22.7936 39.6043 24.3319 39.424 25.8185 39.0406V38.975C25.794 38.9713 25.7694 38.9676 25.7441 38.9637C24.5466 38.7774 23.4598 38.4358 22.3758 37.8938C22.3371 37.8746 22.337 37.8746 22.2976 37.8549C21.9653 37.6885 21.6449 37.5029 21.3239 37.3163C20.9834 37.1188 20.6397 36.9284 20.2902 36.747C20.2515 36.7268 20.2515 36.7268 20.2119 36.7062C19.3577 36.2674 18.4015 36.0092 17.4434 35.9279C17.4108 35.9251 17.3782 35.9222 17.3447 35.9193C17.0359 35.8949 16.7288 35.8886 16.4192 35.889C16.3812 35.889 16.3812 35.889 16.3425 35.8891Z" fill="white"/>
<path d="M32.4095 31.1631C34.7825 29.7604 37.7387 28.9217 40.5124 29.5608C40.5305 29.5658 40.5486 29.5707 40.5672 29.5758C40.5463 29.7097 40.5024 29.8175 40.4433 29.9393C40.4151 29.9975 40.4151 29.9975 40.3864 30.0569C40.3659 30.0985 40.3454 30.1402 40.3249 30.1818C40.3146 30.2029 40.3042 30.224 40.2936 30.2458C40.1531 30.5323 40.0082 30.8161 39.8547 31.0961C39.8393 31.1243 39.8238 31.1526 39.8078 31.1817C39.7791 31.2332 39.7499 31.2843 39.72 31.3351C39.6893 31.3877 39.6598 31.4411 39.6319 31.4953C39.5177 31.6969 39.5177 31.6969 39.401 31.7377C39.3126 31.7455 39.2289 31.7439 39.1403 31.7389C39.1078 31.7383 39.0753 31.7378 39.0419 31.7372C38.9379 31.7351 38.834 31.731 38.7301 31.7267C38.5948 31.7226 38.4595 31.7193 38.3242 31.7163C38.2906 31.7155 38.257 31.7146 38.2224 31.7138C36.4776 31.6816 34.9712 32.3298 33.4943 33.1831C31.7728 34.1766 29.9893 34.8661 27.9684 34.8745C27.9311 34.8747 27.8937 34.875 27.8553 34.8752C27.7355 34.8758 27.6158 34.876 27.496 34.876C27.4551 34.8761 27.4142 34.8761 27.372 34.8761C26.7713 34.8756 26.1825 34.8649 25.5884 34.7692C25.5346 34.7607 25.5346 34.7607 25.4797 34.7521C24.0034 34.5126 22.6928 33.9367 21.4133 33.1841C20.1669 32.4553 18.8959 31.8694 17.4363 31.7452C17.4039 31.7424 17.3715 31.7395 17.3382 31.7366C17.0233 31.7115 16.7101 31.7057 16.3945 31.7062C16.3684 31.7062 16.3423 31.7062 16.3154 31.7062C15.1119 31.7087 13.9271 31.8908 12.83 32.4026C12.7971 32.4179 12.7971 32.4179 12.7635 32.4335C12.2565 32.672 11.7644 32.9453 11.2816 33.2284C9.57234 34.2304 7.77936 34.8407 5.78283 34.8883C5.73773 34.8897 5.69264 34.8917 5.6476 34.8944C5.2731 34.9159 5.27309 34.916 5.11484 34.7988C5.03893 34.7157 4.97419 34.6312 4.90979 34.5391C4.86395 34.484 4.81774 34.4291 4.77104 34.3748C4.33283 33.8373 3.91195 33.2873 3.52417 32.7128C3.50295 32.6814 3.50295 32.6813 3.4813 32.6493C3.38541 32.5054 3.38541 32.5054 3.38541 32.4683C3.58605 32.4829 3.7859 32.5009 3.98554 32.5254C6.17893 32.7943 8.1825 32.3896 10.0752 31.2727C10.385 31.09 10.6999 30.9164 11.0154 30.7435C11.0716 30.7127 11.1278 30.6816 11.1839 30.6504C14.1667 28.9889 18.1786 28.9917 22.5104 31.163C23.7615 31.8995 25.02 32.4408 26.4832 32.567C26.543 32.5724 26.543 32.5724 26.604 32.578C28.7327 32.7416 30.5902 32.2467 32.4095 31.1631Z" fill="white"/>
<path fill-rule="evenodd" clip-rule="evenodd" d="M88.8124 27.4408C89.2795 27.4408 89.6793 27.5448 90.0117 27.7529C90.3484 27.9611 90.6009 28.242 90.7692 28.5958C90.9375 28.9454 91.0217 29.3346 91.0217 29.7633C91.0217 30.192 90.9375 30.5832 90.7692 30.937C90.6009 31.2866 90.3484 31.5655 90.0117 31.7736C89.6793 31.9817 89.2795 32.0857 88.8124 32.0857C88.3453 32.0857 87.9455 31.9817 87.6131 31.7736C87.2806 31.5655 87.0303 31.2866 86.8619 30.937C86.6936 30.5832 86.6094 30.192 86.6094 29.7633C86.6094 29.3346 86.6936 28.9454 86.8619 28.5958C87.0303 28.242 87.2806 27.9611 87.6131 27.7529C87.9455 27.5448 88.3453 27.4408 88.8124 27.4408ZM88.8124 28.0714C88.4884 28.0714 88.2148 28.1463 87.9918 28.2961C87.773 28.446 87.6088 28.6499 87.4994 28.9079C87.3942 29.1618 87.3416 29.4469 87.3416 29.7633C87.3416 30.0796 87.3942 30.3668 87.4994 30.6248C87.6088 30.8787 87.773 31.0806 87.9918 31.2304C88.2148 31.3802 88.4884 31.4552 88.8124 31.4552C89.1407 31.4552 89.4142 31.3802 89.633 31.2304C89.856 31.0806 90.0202 30.8787 90.1254 30.6248C90.2348 30.3668 90.2895 30.0796 90.2895 29.7633C90.2895 29.4469 90.2348 29.1618 90.1254 28.9079C90.0202 28.6499 89.856 28.446 89.633 28.2961C89.4142 28.1463 89.1407 28.0714 88.8124 28.0714Z" fill="white"/>
<path d="M126.964 27.4408C127.562 27.4408 128.01 27.5761 128.309 27.8466C128.612 28.1172 128.77 28.4772 128.782 28.9267H128.088C128.067 28.627 127.966 28.4043 127.785 28.2587C127.608 28.1088 127.335 28.0339 126.964 28.0339C126.699 28.0339 126.485 28.088 126.321 28.1962C126.161 28.3044 126.081 28.4522 126.081 28.6395C126.081 28.7768 126.108 28.8892 126.163 28.9766C126.217 29.0598 126.325 29.1369 126.485 29.2076C126.649 29.2742 126.893 29.3387 127.217 29.4012C127.65 29.4886 127.987 29.5926 128.227 29.7133C128.471 29.834 128.641 29.9776 128.738 30.1441C128.835 30.3106 128.883 30.5125 128.883 30.7497C128.883 31.0202 128.81 31.2575 128.662 31.4614C128.515 31.6612 128.309 31.8152 128.044 31.9234C127.779 32.0316 127.474 32.0857 127.129 32.0857C126.565 32.0857 126.108 31.9526 125.759 31.6862C125.414 31.4198 125.233 31.0244 125.216 30.5H125.923C125.935 30.8579 126.053 31.1139 126.276 31.2679C126.499 31.4177 126.788 31.4926 127.141 31.4926C127.448 31.4926 127.695 31.4302 127.88 31.3053C128.065 31.1805 128.157 31.0015 128.157 30.7684C128.157 30.6394 128.126 30.5332 128.063 30.45C128 30.3626 127.882 30.2835 127.709 30.2128C127.537 30.142 127.284 30.0733 126.952 30.0068C126.396 29.8985 125.99 29.7446 125.733 29.5448C125.481 29.3408 125.355 29.0432 125.355 28.652C125.355 28.4106 125.422 28.1983 125.557 28.0152C125.696 27.832 125.887 27.6905 126.131 27.5906C126.375 27.4907 126.653 27.4408 126.964 27.4408Z" fill="white"/>
<path d="M50.6314 31.3053L51.9822 27.5157H52.727L51.0164 32.0108H50.2274L48.5168 27.5157H49.2616L50.6314 31.3053Z" fill="white"/>
<path d="M55.6958 32.0108H54.9951V27.5157H55.6958V32.0108Z" fill="white"/>
<path d="M61.536 28.14H58.9858V29.3762H61.3466V29.988H58.9858V31.3865H61.517V32.0108H58.2851V27.5157H61.536V28.14Z" fill="white"/>
<path d="M65.288 31.0931L66.2348 27.5157H66.9859L67.9328 31.0931L68.9112 27.5157H69.6434L68.3431 32.0108H67.5541L66.6072 28.4147L65.6604 32.0108H64.8776L63.571 27.5157H64.3096L65.288 31.0931Z" fill="white"/>
<path fill-rule="evenodd" clip-rule="evenodd" d="M76.8412 27.5157C77.1947 27.5157 77.4914 27.5781 77.7312 27.703C77.9753 27.8279 78.1563 27.9964 78.2741 28.2087C78.3961 28.421 78.4572 28.6624 78.4572 28.9329C78.4572 29.1993 78.3961 29.4407 78.2741 29.6571C78.1563 29.8694 77.9753 30.038 77.7312 30.1628C77.4914 30.2877 77.1947 30.3501 76.8412 30.3501H75.6798V32.0108H74.9791V27.5157H76.8412ZM75.6798 29.7321H76.8223C77.1295 29.7321 77.3588 29.6613 77.5103 29.5198C77.6618 29.3783 77.7376 29.1826 77.7376 28.9329C77.7376 28.6832 77.6618 28.4876 77.5103 28.3461C77.3588 28.2004 77.1295 28.1275 76.8223 28.1275H75.6798V29.7321Z" fill="white"/>
<path fill-rule="evenodd" clip-rule="evenodd" d="M82.7963 27.5157C83.3265 27.5157 83.7242 27.6322 83.9893 27.8653C84.2544 28.0942 84.387 28.4126 84.387 28.8205C84.387 29.0411 84.326 29.2451 84.2039 29.4324C84.0861 29.6155 83.9115 29.7674 83.68 29.8881C84.004 30.0213 84.1955 30.2815 84.2544 30.6685L84.4564 32.0108H83.7368L83.5727 30.8808C83.539 30.6269 83.457 30.4438 83.3265 30.3314C83.2003 30.219 83.0109 30.1628 82.7584 30.1628H81.5464V32.0108H80.8458V27.5157H82.7963ZM81.5464 29.576H82.7458C83.053 29.576 83.2823 29.5136 83.4338 29.3887C83.5853 29.2597 83.6611 29.0786 83.6611 28.8455C83.6611 28.6124 83.5853 28.4335 83.4338 28.3086C83.2823 28.1796 83.053 28.115 82.7458 28.115H81.5464V29.576Z" fill="white"/>
<path fill-rule="evenodd" clip-rule="evenodd" d="M95.2796 27.5157C95.6331 27.5157 95.9298 27.5781 96.1697 27.703C96.4138 27.8279 96.5947 27.9965 96.7126 28.2087C96.8346 28.421 96.8956 28.6624 96.8956 28.9329C96.8956 29.1993 96.8346 29.4407 96.7126 29.6571C96.5947 29.8694 96.4138 30.038 96.1697 30.1628C95.9298 30.2877 95.6331 30.3501 95.2796 30.3501H94.1182V32.0108H93.4176V27.5157H95.2796ZM94.1182 29.7321H95.2607C95.5679 29.7321 95.7973 29.6613 95.9487 29.5198C96.1002 29.3783 96.176 29.1826 96.176 28.9329C96.176 28.6832 96.1002 28.4876 95.9487 28.3461C95.7973 28.2004 95.5679 28.1275 95.2607 28.1275H94.1182V29.7321Z" fill="white"/>
<path d="M102.535 28.14H99.9849V29.3762H102.346V29.988H99.9849V31.3865H102.516V32.0108H99.2843V27.5157H102.535V28.14Z" fill="white"/>
<path fill-rule="evenodd" clip-rule="evenodd" d="M106.843 27.5157C107.373 27.5157 107.77 27.6322 108.036 27.8653C108.301 28.0942 108.433 28.4126 108.433 28.8205C108.433 29.0411 108.372 29.2451 108.25 29.4324C108.132 29.6155 107.958 29.7674 107.726 29.8881C108.05 30.0213 108.242 30.2815 108.301 30.6685L108.503 32.0108H107.783L107.619 30.8808C107.585 30.6269 107.503 30.4438 107.373 30.3314C107.247 30.219 107.057 30.1628 106.805 30.1628H105.593V32.0108H104.892V27.5157H106.843ZM105.593 29.576H106.792C107.099 29.576 107.329 29.5135 107.48 29.3887C107.632 29.2597 107.707 29.0786 107.707 28.8455C107.707 28.6124 107.632 28.4335 107.48 28.3086C107.329 28.1796 107.099 28.115 106.792 28.115H105.593V29.576Z" fill="white"/>
<path d="M114.254 28.14H112.758V32.0108H112.044V28.14H110.548V27.5157H114.254V28.14Z" fill="white"/>
<path d="M117.246 32.0108H116.545V27.5157H117.246V32.0108Z" fill="white"/>
<path d="M123.086 28.14H120.536V29.3762H122.897V29.988H120.536V31.3865H123.067V32.0108H119.835V27.5157H123.086V28.14Z" fill="white"/>
<path d="M33.1453 8.28654C33.3824 8.28818 33.6171 8.29722 33.853 8.32118C33.8787 8.32374 33.9044 8.32631 33.9308 8.32894C34.0491 8.34278 34.116 8.35681 34.2168 8.42317C32.165 10.4483 30.1131 12.4735 27.9991 14.56C28.1737 14.4738 28.3484 14.3876 28.5283 14.2988C28.6624 14.2408 28.7954 14.1846 28.9314 14.1315C28.9666 14.1178 29.0018 14.1041 29.0381 14.0899C30.8606 13.3924 32.9184 13.443 34.7129 14.2009C34.8932 14.281 35.0681 14.3696 35.2421 14.4621C35.2748 14.4788 35.3075 14.4955 35.3412 14.5127C36.1629 14.9395 36.9153 15.5747 37.491 16.29C37.5166 16.3211 37.5422 16.3523 37.5686 16.3843C37.7556 16.6121 37.7556 16.6122 37.7556 16.6491C37.7313 16.6483 37.707 16.6475 37.682 16.6466C36.2773 16.6491 34.786 16.6668 33.3338 16.6466C33.158 16.6442 33.0466 16.6493 32.8708 16.6466C32.7881 16.6491 32.6919 16.6497 32.6558 16.6491C32.1643 16.6416 31.7629 16.6466 31.2668 16.6466C30.4234 16.6409 29.5817 16.6457 28.7367 16.6466C28.5382 16.6466 28.1783 16.6512 27.728 16.6491C26.8105 16.645 26.0579 16.6246 25.8924 16.6572C25.8098 16.7388 25.2459 17.2919 24.6062 17.9198C24.2121 18.3244 23.8595 18.6691 23.66 18.8769C23.5443 19.0238 23.3722 19.159 23.2366 19.2931C23.204 19.3264 23.204 19.3264 23.1707 19.3603C23.0968 19.435 23.0219 19.5088 22.9469 19.5824C22.9188 19.61 22.8908 19.6376 22.8619 19.6661C22.7857 19.7412 22.7094 19.8161 22.6331 19.8911C22.5528 19.97 22.4726 20.0491 22.3924 20.1281C22.1716 20.3456 21.9506 20.5631 21.7296 20.7805C21.5269 20.9799 21.3242 21.1793 21.1216 21.379C21.042 21.4574 20.9624 21.5358 20.8826 21.6141C20.7937 21.7015 20.7048 21.789 20.616 21.8765C20.59 21.902 20.564 21.9276 20.5372 21.9538C20.4033 22.086 20.2758 22.2211 20.1522 22.3626C20.0504 22.4763 19.9414 22.583 19.8327 22.6902C19.8076 22.7151 19.7825 22.74 19.7567 22.7656C19.6746 22.8469 19.5924 22.9281 19.5101 23.0093C19.4528 23.066 19.3954 23.1227 19.3381 23.1794C19.2184 23.2978 19.0986 23.4161 18.9787 23.5344C18.8248 23.6863 18.6711 23.8384 18.5175 23.9906C18.3994 24.1075 18.2811 24.2243 18.1628 24.3411C18.1061 24.3971 18.0494 24.4533 17.9927 24.5094C17.9139 24.5876 17.8348 24.6655 17.7557 24.7434C17.7322 24.7668 17.7087 24.7902 17.6844 24.8143C17.6522 24.8459 17.6522 24.8459 17.6194 24.8781C17.6007 24.8965 17.5821 24.915 17.5628 24.934C17.5151 24.973 17.515 24.973 17.4489 24.973C17.3877 24.5777 17.3707 24.1911 17.3724 23.7917C17.3725 23.7474 17.3725 23.7474 17.3726 23.7022C17.3743 23.2697 17.3882 22.8507 17.482 22.4268C17.4885 22.3955 17.4951 22.3641 17.5019 22.3317C17.6483 21.6416 17.8688 20.9906 18.2096 20.3704C18.2265 20.3387 18.2265 20.3387 18.2438 20.3064C18.777 19.3105 19.5578 18.4385 20.4916 17.7916C20.5118 17.7772 20.532 17.7629 20.5528 17.7481C21.2621 17.2456 22.0664 16.9078 22.9059 16.6818L13.9432 16.6491C14.1659 16.3194 14.1659 16.3194 14.2884 16.1901C14.3796 16.0927 14.4697 15.995 14.5571 15.8943C14.7831 15.6395 15.0305 15.423 15.2992 15.2129C15.3307 15.1873 15.3623 15.1617 15.3948 15.1354C16.8964 13.9479 18.8826 13.4552 20.7807 13.6385C21.7627 13.75 22.6449 14.0568 23.5238 14.4913C23.6028 14.5303 23.6028 14.5303 23.6997 14.56C23.2516 14.117 22.8033 13.674 22.355 13.2311C22.1469 13.0255 21.9387 12.8199 21.7306 12.6141C21.5492 12.4347 21.3677 12.2554 21.1862 12.0761C21.0901 11.9813 20.9941 11.8864 20.8981 11.7914C20.8076 11.7019 20.7171 11.6125 20.6264 11.5231C20.5933 11.4904 20.5603 11.4577 20.5272 11.425C20.3643 11.2635 20.2 11.1066 20.0248 10.9581C19.9146 10.8625 19.8114 10.7598 19.7077 10.6574C19.6719 10.6221 19.6719 10.6221 19.6353 10.5862C19.5572 10.5094 19.4792 10.4325 19.4013 10.3556C19.3468 10.3019 19.2922 10.2483 19.2377 10.1946C19.124 10.0826 19.0104 9.97046 18.8968 9.85833C18.7509 9.71433 18.6048 9.57055 18.4586 9.42683C18.3463 9.31631 18.2341 9.20565 18.1219 9.09494C18.0681 9.04182 18.0142 8.98876 17.9602 8.93575C17.8852 8.862 17.8103 8.78801 17.7355 8.71399C17.7018 8.681 17.7018 8.68103 17.6674 8.64737C17.6472 8.62729 17.627 8.60715 17.6062 8.58646C17.5797 8.56027 17.5796 8.56029 17.5525 8.53358C17.515 8.48847 17.515 8.48845 17.515 8.42317C19.3999 8.07792 21.3557 8.56865 22.9306 9.61462C23.5698 10.0484 24.1594 10.5901 24.6179 11.2081C24.659 11.2633 24.7008 11.3178 24.7427 11.3724C24.9663 11.6672 25.1486 11.981 25.3202 12.3076C25.3321 12.3301 25.3439 12.3527 25.3561 12.3759C25.5624 12.7733 25.7079 13.1899 25.8494 13.6134C25.9153 13.4537 25.98 13.2939 26.0385 13.1315C26.268 12.5002 26.5731 11.9036 26.9739 11.361C26.9873 11.3428 27.0006 11.3246 27.0144 11.3058C27.2142 11.0357 27.4338 10.7861 27.6684 10.545C27.6861 10.5266 27.7039 10.5081 27.7222 10.4892C27.9939 10.2087 28.2772 9.95807 28.5944 9.72891C28.629 9.70383 28.6637 9.6787 28.6993 9.65286C29.9682 8.76185 31.4698 8.28537 33.0283 8.28649C33.0669 8.28651 33.1055 8.28652 33.1453 8.28654Z" fill="white"/>
<path fill-rule="evenodd" clip-rule="evenodd" d="M21.2184 1.78817e-07C22.0066 -4.69518e-05 22.7876 0.00915626 23.5706 0.106364C23.6253 0.112935 23.68 0.119533 23.7347 0.126096C25.529 0.344438 27.5394 0.637907 30.3225 2.029C31.7925 2.68205 32.6737 3.23496 33.4699 3.82892C33.8906 4.14278 34.1988 4.35254 34.7785 4.81069C34.8703 4.88806 34.9518 4.9838 35.0461 5.05822C35.2631 5.2327 35.4646 5.42302 35.6678 5.61271C35.7437 5.68312 35.8205 5.75253 35.8974 5.82189C36.1853 6.08194 36.4692 6.34743 36.7222 6.64137C36.7981 6.72675 36.8768 6.80921 36.9557 6.89184C37.135 7.07961 37.3093 7.26859 37.4724 7.4705C37.533 7.54509 37.5943 7.61871 37.6565 7.69193C38.4296 8.6033 39.1185 9.60568 39.705 10.6442C39.7219 10.6737 39.7388 10.7033 39.7562 10.7338C41.2571 13.3731 42.1507 16.3135 42.4217 19.7092C42.4245 19.7562 42.4245 19.7562 42.4273 19.8042C42.5823 22.5233 42.1966 25.2529 41.2952 27.8253C41.2643 27.8173 41.2333 27.8094 41.2014 27.8012C41.0563 27.7644 40.9107 27.7293 40.7651 27.6944C40.7416 27.6886 40.718 27.6828 40.6937 27.6769C39.5684 27.4055 38.3005 27.3632 37.1539 27.5307C37.1245 27.5348 37.0951 27.5388 37.0648 27.543C35.7556 27.7273 34.6283 28.2703 33.5005 28.9263C33.2647 29.0633 33.0265 29.1956 32.7861 29.3247C32.7136 29.3639 32.6414 29.4037 32.5693 29.4435C31.1724 30.2037 29.5457 30.6067 27.9522 30.6136C27.9163 30.6138 27.8805 30.614 27.8436 30.6143C27.7286 30.6149 27.6135 30.6151 27.4985 30.6151C27.4592 30.6151 27.4199 30.6152 27.3794 30.6152C26.7879 30.6147 26.2099 30.6001 25.6246 30.5088C25.5688 30.5003 25.5688 30.5003 25.5118 30.4917C24.9732 30.4083 24.4532 30.2829 23.935 30.1161C23.9054 30.1067 23.8757 30.0973 23.8452 30.0876C23.0064 29.8178 22.2209 29.4016 21.4629 28.9607C19.4569 27.7944 17.3697 27.1879 15.023 27.5307C14.9936 27.5348 14.9641 27.5388 14.9339 27.543C13.6117 27.7292 12.4594 28.2824 11.3249 28.9514C10.5324 29.4169 9.73263 29.8176 8.86072 30.1161C8.83331 30.1255 8.80587 30.135 8.77762 30.1447C6.78315 30.8181 4.50097 30.7568 2.46659 30.3124C2.43161 30.3056 2.39661 30.2988 2.36057 30.2918C2.12447 30.24 2.12444 30.24 2.02254 30.1223C1.99737 30.0636 1.99738 30.0635 1.97171 30.0036C1.95668 29.9699 1.95667 29.9699 1.94134 29.9356C1.91851 29.884 1.89628 29.8321 1.8746 29.7799C1.83274 29.6803 1.78855 29.5818 1.74408 29.4833C0.83567 27.4537 0.177831 25.3017 0.0149342 21.7792C-0.027314 20.8656 0.031827 19.8445 0.0480534 18.7275C0.0507866 18.7025 0.0535311 18.6775 0.0563472 18.6519C0.221651 17.1615 0.552793 15.6957 1.04196 14.2767C1.06104 14.221 1.06106 14.221 1.08052 14.1642C1.52566 12.8729 2.09405 11.6221 2.7979 10.4478C2.83078 10.3921 2.86367 10.3364 2.89653 10.2807C3.47409 9.30914 4.14393 8.38152 4.88536 7.5252C4.98325 7.41213 5.07858 7.29736 5.1729 7.18134C5.27872 7.05277 5.38904 6.93399 5.5107 6.81996C5.56908 6.76154 5.6222 6.70226 5.67596 6.63982C5.84518 6.44734 6.02933 6.26913 6.21203 6.08927C6.27436 6.02787 6.3365 5.96629 6.39864 5.9047C6.59532 5.71031 6.79284 5.52011 7.00543 5.34256C7.0587 5.29496 7.11185 5.24721 7.16487 5.19934C7.30611 5.07358 7.45087 4.95333 7.59878 4.8353C7.6733 4.77574 7.74738 4.71574 7.82114 4.65527C8.12325 4.40856 8.43416 4.17765 8.75414 3.95407C8.82466 3.90464 8.89483 3.85476 8.9649 3.8047C9.88242 3.1522 10.8662 2.60323 11.8756 2.10266C11.9195 2.08075 11.9195 2.08073 11.9643 2.05837C13.6354 1.22945 15.443 0.68171 17.2758 0.335497C17.337 0.323933 17.337 0.323905 17.3995 0.312107C18.0097 0.199317 18.6224 0.127595 19.2397 0.0670108C19.2615 0.064838 19.2833 0.0626537 19.3058 0.0604151C19.7164 0.0212707 20.1259 0.00278532 20.5383 0.00155212C20.5863 0.00132092 20.6343 0.00112248 20.6822 0.000887003C20.8347 0.000247827 20.9871 8.14623e-05 21.1396 5.56053e-05C21.1786 4.11451e-05 21.1786 1.4931e-05 21.2184 1.78817e-07ZM21.125 2.39116C18.1629 2.39579 15.2819 3.1153 12.6375 4.4262C12.6049 4.44235 12.5723 4.45854 12.5387 4.47519C11.3532 5.06631 10.2444 5.81239 9.22515 6.65157C9.20594 6.6673 9.18671 6.68303 9.16692 6.69924C8.92063 6.90119 8.6819 7.11 8.44749 7.32528C8.39572 7.37263 8.3436 7.4196 8.29142 7.46651C7.96832 7.75758 7.64644 8.05376 7.36313 8.38348C7.30129 8.45413 7.23738 8.52268 7.17305 8.59111C7.01635 8.75794 6.86591 8.92791 6.72148 9.10536C6.66214 9.17821 6.60233 9.25052 6.54188 9.32246C5.80365 10.2041 5.16664 11.1743 4.62007 12.1823C4.60458 12.2107 4.58906 12.2391 4.57311 12.2683C3.19758 14.7995 2.42579 17.6525 2.36718 20.5274C2.36645 20.561 2.36574 20.5947 2.36499 20.6294C2.31862 23.1734 2.86414 25.9845 3.94087 28.308C6.13472 28.8135 8.41458 28.0541 10.2787 26.9518C12.077 25.8956 13.9437 25.2442 16.05 25.2071C16.0762 25.2065 16.1024 25.2058 16.1293 25.2052C17.8434 25.1638 19.534 25.4558 21.0858 26.189C21.1074 26.1991 21.1291 26.2091 21.1514 26.2195C21.7152 26.4833 22.2615 26.7925 22.7961 27.1094C23.6174 27.6502 23.6174 27.6502 24.5313 27.9234C24.5314 27.9027 24.5315 27.8819 24.5316 27.8605C24.5336 27.3537 24.5361 26.847 24.5392 26.3403C24.5406 26.0952 24.5419 25.8502 24.5428 25.6051C24.5436 25.3914 24.5447 25.1777 24.5462 24.9641C24.547 24.851 24.5476 24.7379 24.5478 24.6249C24.548 24.4984 24.5491 24.3718 24.5501 24.2453C24.5501 24.2083 24.55 24.1712 24.55 24.133C24.5546 23.7465 24.6559 23.4039 24.9228 23.1125C25.2463 22.8142 25.5818 22.7364 26.0109 22.7437C26.3421 22.7579 26.6529 22.9125 26.8827 23.1466C27.1175 23.4259 27.2178 23.7308 27.2201 24.092C27.2204 24.13 27.2207 24.1679 27.2211 24.2071C27.2213 24.2483 27.2215 24.2896 27.2217 24.332C27.222 24.3762 27.2223 24.4204 27.2226 24.4646C27.2235 24.5842 27.2243 24.7038 27.2249 24.8234C27.2257 24.9485 27.2266 25.0737 27.2275 25.1988C27.2291 25.4356 27.2306 25.6723 27.232 25.9091C27.2336 26.1788 27.2355 26.4484 27.2373 26.7181C27.2411 27.2726 27.2446 27.8271 27.248 28.3816C27.3483 28.3819 27.4486 28.3821 27.5488 28.3822C27.577 28.3823 27.6052 28.3823 27.6342 28.3824C27.8562 28.3827 28.0765 28.3748 28.2978 28.357C28.334 28.3541 28.3702 28.3512 28.4074 28.3482C29.476 28.2555 31.1766 27.9699 31.9856 27.1707C31.9899 27.1244 31.9918 27.0777 31.9929 27.0312C31.9937 27.0011 31.9945 26.9709 31.9953 26.9399C31.9963 26.8899 31.9963 26.8899 31.9973 26.8389C31.9981 26.8039 31.9989 26.769 31.9997 26.733C32.0067 26.4092 32.0109 26.0853 32.0141 25.7615C32.0163 25.544 32.0195 25.3266 32.0249 25.1091C32.0302 24.8988 32.033 24.6886 32.0341 24.4782C32.0349 24.3983 32.0366 24.3184 32.0392 24.2386C32.059 23.7145 32.059 23.7145 31.8124 23.2685C31.7279 23.1842 31.6406 23.1058 31.5479 23.0304C31.4677 22.9646 31.3956 22.892 31.323 22.8182C31.3 22.7958 31.2769 22.7733 31.2532 22.7502C31.1935 22.6903 31.138 22.6286 31.0829 22.5646C30.9757 22.441 30.8603 22.327 30.7433 22.2127C30.6096 22.0822 30.4817 21.9504 30.3602 21.8088C30.2528 21.6907 30.1372 21.5807 30.023 21.4692C29.9082 21.3566 29.8 21.2413 29.6954 21.1194C29.6121 21.0275 29.5234 20.9413 29.4346 20.8546C29.3264 20.7491 29.2203 20.644 29.1219 20.5294C29.0171 20.4076 28.9035 20.296 28.7885 20.1837C28.6542 20.0525 28.5255 19.92 28.4033 19.7776C28.32 19.6857 28.2314 19.5995 28.1425 19.5129C28.0344 19.4073 27.9282 19.3023 27.8298 19.1877C27.7077 19.0456 27.573 18.9167 27.439 18.7858C27.323 18.6721 27.2132 18.5555 27.1076 18.4323C27.0058 18.3192 26.8951 18.2146 26.7855 18.109C26.7179 18.0402 26.7179 18.0402 26.6848 17.9748C27.1637 17.966 27.6426 17.9605 28.1217 17.9587C28.3442 17.9579 28.5665 17.9559 28.789 17.9515C29.0041 17.9474 29.219 17.946 29.4341 17.9464C29.5158 17.9461 29.5975 17.9449 29.6791 17.9426C30.3511 17.9248 30.3512 17.9248 30.5944 18.1296C30.7113 18.2443 30.8124 18.3679 30.9094 18.4993C30.9747 18.585 31.0473 18.6559 31.1263 18.7295C31.2097 18.8107 31.2886 18.8931 31.3644 18.9811C31.4716 19.1047 31.587 19.2186 31.704 19.3329C31.8376 19.4634 31.9655 19.5952 32.0871 19.7368C32.1764 19.8351 32.2715 19.9273 32.3666 20.0201C32.5002 20.1506 32.6281 20.2824 32.7497 20.4241C32.8391 20.5223 32.9341 20.6145 33.0292 20.7073C33.1628 20.8378 33.2908 20.9696 33.4123 21.1113C33.5017 21.2095 33.5968 21.3017 33.6918 21.3946C33.8252 21.5249 33.9531 21.6565 34.0744 21.798C34.1843 21.9187 34.3023 22.0316 34.4197 22.1451C34.4376 22.1625 34.4556 22.18 34.474 22.1979C34.4901 22.2134 34.5061 22.2289 34.5227 22.2448C34.5382 22.2612 34.5538 22.2777 34.5698 22.2946C34.5868 22.3105 34.6039 22.3265 34.6215 22.3429C34.6966 22.4731 34.6837 22.6024 34.6835 22.7498C34.6838 22.7827 34.6842 22.8156 34.6845 22.8495C34.6855 22.9582 34.6858 23.0669 34.6861 23.1756C34.6867 23.251 34.6873 23.3264 34.6879 23.4018C34.6895 23.6002 34.6905 23.7986 34.6913 23.997C34.6923 24.1995 34.6939 24.402 34.6954 24.6044C34.6982 25.0017 34.7005 25.399 34.7023 25.7962C34.725 25.7895 34.7478 25.7828 34.7712 25.7758C34.8159 25.7626 34.8159 25.7625 34.8616 25.749C34.8911 25.7402 34.9207 25.7315 34.9512 25.7225C35.7805 25.4773 36.6206 25.2998 37.4852 25.2399C37.5217 25.2371 37.5217 25.2371 37.559 25.2343C38.217 25.1862 38.88 25.2041 39.5393 25.2071C39.6819 24.5118 39.8192 23.8177 39.9038 23.1127C39.9087 23.0734 39.9137 23.0341 39.9188 22.9937C40.0857 21.6235 40.0755 20.195 39.9038 18.8256C39.8997 18.792 39.8996 18.792 39.8955 18.7577C39.6282 16.5686 38.9474 14.477 37.9491 12.5095C37.9343 12.4803 37.9195 12.451 37.9043 12.4209C37.5617 11.7462 37.1582 11.1006 36.7233 10.4805C36.7093 10.4606 36.6954 10.4407 36.681 10.4202C36.3624 9.9675 36.0224 9.52788 35.6631 9.10602C35.6483 9.08863 35.6335 9.07124 35.6182 9.05331C35.5691 8.99576 35.5199 8.93837 35.4705 8.88105C35.4488 8.85569 35.4488 8.85569 35.4266 8.82983C35.1106 8.46527 34.7719 8.1221 34.4279 7.78344C34.3622 7.71874 34.2967 7.65388 34.2312 7.589C34.0295 7.3896 33.8279 7.19271 33.609 7.01157C33.5719 6.97975 33.5349 6.94788 33.498 6.91596C33.2509 6.70456 32.9994 6.50028 32.7402 6.3036C32.6829 6.26008 32.6261 6.21609 32.5693 6.17208C32.273 5.9453 31.9638 5.73829 31.6523 5.53273C31.6315 5.519 31.6108 5.5053 31.5894 5.49116C31.0957 5.16504 30.5861 4.86928 30.0641 4.58981C30.0359 4.57467 30.0077 4.55952 29.9787 4.54392C27.6793 3.31385 25.1425 2.64017 21.2286 2.39104C21.1944 2.39106 21.1602 2.39114 21.125 2.39116Z" fill="white"/>
<path d="M86.9377 20.0011C86.9377 21.8883 88.0022 22.802 89.7696 22.802C91.5169 22.802 92.6015 21.8883 92.6015 20.0011V11.1811H95.9958V20.0011C95.9958 23.7754 93.3848 25.7222 89.7696 25.7222C86.1544 25.7222 83.5434 23.7754 83.5434 20.0011V11.1811H86.9377V20.0011Z" fill="white"/>
<path fill-rule="evenodd" clip-rule="evenodd" d="M63.3512 25.4838H59.736L58.8322 22.8617H52.8671L51.9633 25.4838H48.5087L53.8311 11.1811H57.8681L63.3512 25.4838ZM53.8512 20.0607H57.848L55.8596 14.28L53.8512 20.0607Z" fill="white"/>
<path d="M78.918 13.7635L71.3261 22.5438L75.1221 22.4842H79.0185V25.4838H67.008V22.802L74.4793 14.1211L70.824 14.1807H67.2489V11.1811H78.918V13.7635Z" fill="white"/>
<path fill-rule="evenodd" clip-rule="evenodd" d="M107.883 11.1811C111.498 11.1811 113.105 12.9888 113.105 15.4719C113.105 16.9618 112.261 18.1537 110.896 18.9681C112.161 19.5839 112.663 20.5375 112.844 21.7691L113.406 25.4838H109.932L109.45 22.2657C109.249 20.8553 108.606 20.1799 107.24 20.1799H104.489V25.4838H101.095V11.1811H107.883ZM104.489 17.6173H107.281C108.827 17.6173 109.61 17.0412 109.61 15.75C109.61 14.4588 108.827 13.8827 107.281 13.8827H104.489V17.6173Z" fill="white"/>
<path d="M129 14.1807H121.388V16.8029H128.418V19.6435H121.388V22.4842H128.98V25.4838H117.994V11.1811H129V14.1807Z" fill="white"/>
</svg>
